<svg xmlns:dc="http://purl.org/dc/elements/1.1/" xmlns:cc="http://creativecommons.org/ns#" xmlns:rdf="http://www.w3.org/1999/02/22-rdf-syntax-ns#" xmlns:svg="http://www.w3.org/2000/svg" xmlns="http://www.w3.org/2000/svg" xmlns:sodipodi="http://sodipodi.sourceforge.net/DTD/sodipodi-0.dtd" xmlns:inkscape="http://www.inkscape.org/namespaces/inkscape" width="100" height="100" viewBox="0 0 80 80" version="1.1" id="svg2" inkscape:version="0.48.2 r9819" sodipodi:docname="stopwatch hand.svg">
  <metadata id="metadata14">
    <rdf:RDF>
      <cc:Work rdf:about="">
        <dc:format>image/svg+xml</dc:format>
        <dc:type rdf:resource="http://purl.org/dc/dcmitype/StillImage"/>
        <dc:title/>
      </cc:Work>
    </rdf:RDF>
  </metadata>
  <defs id="defs12"/>
  <sodipodi:namedview pagecolor="#ffffff" bordercolor="#666666" borderopacity="1" objecttolerance="10" gridtolerance="10" guidetolerance="10" inkscape:pageopacity="0" inkscape:pageshadow="2" inkscape:window-width="1535" inkscape:window-height="645" id="namedview10" showgrid="false" inkscape:zoom="1.6086679" inkscape:cx="-37.009101" inkscape:cy="94.446807" inkscape:window-x="0" inkscape:window-y="0" inkscape:window-maximized="0" inkscape:current-layer="svg2"/>
  <path style="fill:#000000;stroke:none" d="m 58.210357,10.874645 c -0.96315,-0.0152 -1.842797,0.53097 -2.72359,0.84956 -0.779597,0.29984 -1.499224,0.73961 -2.278821,0.99948 -1.399275,-0.1 -2.798551,-0.1 -4.197827,-0.1 -0.759606,0 -1.499223,0.23988 -2.198861,0.53972 -0.999483,0.53972 -1.679131,1.51922 -2.358779,2.39876 -1.479234,1.39928 -2.798551,2.95847 -4.03791,4.55764 -1.019472,1.23936 -2.218851,2.3188 -3.41823,3.37825 -1.659141,1.67913 -3.258313,3.41823 -5.057382,4.95744 -1.419265,1.37928 -2.87851,2.71859 -4.397724,3.99793 -1.799068,1.29932 -4.117868,1.59917 -6.29674,1.55919 -2.098913,-0.31984 -4.237806,-0.04 -6.336719,-0.29985 -1.339307,-0.11993 -2.698603,0.02 -4.0579,-0.0999 -3.2583128,-0.31983 -6.5366157,-0.51973 -9.7949289,-0.83956 l 0,26.94605 c 3.7980338,-0.3798 7.5560883,-1.09943 11.3741119,-1.31932 3.278303,-0.31983 6.636564,-0.0999 9.834908,0.67965 2.498707,0.53972 4.777527,1.71911 6.89643,3.11839 1.75909,1.11942 3.738065,1.87902 5.796999,2.25883 3.178355,0.55971 6.416678,0.65966 9.595033,1.29933 1.219369,0.27985 2.498707,0.1799 3.678096,0.55971 1.1594,0.39979 2.378769,0.59969 3.478199,1.11942 1.019473,0.47975 2.118903,0.7596 3.118386,1.23935 0.819576,0.41979 1.7391,0.27986 2.598655,0.29985 0.819575,0 1.67913,0.1 2.458727,-0.21989 1.439255,-0.73961 2.438737,-2.37877 2.158882,-3.99793 -0.259865,-1.19938 -1.359296,-1.87902 -1.998965,-2.85852 -0.5797,-0.91952 -1.279338,-1.71911 -1.839048,-2.63863 0.339824,0.06 0.719628,0.06 1.059452,0.1999 2.458727,0.87954 4.937444,1.61916 7.41616,2.39875 1.139411,0.53972 2.498707,0.31984 3.518179,-0.35981 1.259348,-0.9595 2.118903,-2.55868 1.839048,-4.15785 -0.279855,-1.21937 -1.199379,-2.21885 -2.358779,-2.65862 -0.719627,-0.31984 -1.519213,0.13993 -2.238841,-0.17991 -3.183582,-1.13626 -6.037682,-0.45768 -5.637082,3.858 -1.11942,0.47976 -2.358778,0.89954 -3.578147,0.55971 -0.59969,0.02 -0.919524,-0.53972 -1.259348,-0.93951 -1.162486,-1.69167 -4.065913,-1.44842 -5.377217,0.53972 -9.649966,-1.32996 -20.702222,-19.80369 -3.738064,-30.16438 -0.239876,-0.7796 -0.739618,-1.63915 -0.459762,-2.45873 1.019472,-0.91952 2.058934,-1.87903 2.678613,-3.11839 0.279855,-0.53972 0.739617,-0.91952 1.219369,-1.25934 0.05997,-0.45977 0.03998,-0.91953 -0.03998,-1.37929 0.379804,0.02 0.659659,-0.27985 1.019473,-0.35981 0.859555,-0.33983 1.819058,-0.9795 1.579182,-2.01896 0.539721,-0.23987 1.019472,-0.79958 1.659141,-0.69964 0.899535,0.0999 2.018955,0.21989 2.678614,-0.55971 0.739617,-1.05945 1.599172,-2.19886 1.519213,-3.55815 -0.05997,-0.81958 -0.459762,-1.79907 -1.299327,-2.05894 -0.06497,-0.006 -0.130689,-0.009 -0.194899,-0.01 z m -3.628122,7.1313 c -0.308981,2.08319 -1.615345,2.20963 -2.573668,2.49871 -0.0019,0.75434 0.206306,1.0449 -0.259865,1.36929 -0.637411,0.57853 -0.731825,0.56687 -1.094434,1.09444 0.112147,1.43041 1.940226,3.57778 4.042907,3.60813 0.458641,0.24976 0.403934,0.889 0.209892,1.29933 -1.834563,0.24976 -3.649087,0.75069 -5.307253,1.58917 -12.441078,5.52175 -10.24924,22.85875 2.02895,27.35084 0.267122,-0.6139 0.988256,-1.30634 1.889022,-1.62915 -4.772266,-1.02643 -8.564477,-4.61155 -9.804924,-9.21523 -0.0048,-0.0167 -0.01025,-0.0333 -0.01498,-0.05 -0.313092,-1.0976 -0.479751,-2.25268 -0.479751,-3.44821 0,-7.06167 5.838389,-12.78838 13.043248,-12.78838 6.458213,0 11.82452,4.43514 12.86334,10.54954 0.138725,0.69585 0.221001,1.4119 0.239876,2.14389 l 0.005,0.31983 c 0,1.31293 -0.199678,2.58076 -0.574703,3.77305 0.565184,-0.53247 1.371975,-0.85839 2.463725,-0.82457 0.211682,-0.92769 0.196949,-1.908 0.24987,-2.85353 -1.749324,-1.41845 -2.902619,-4.18819 -1.414268,-6.29674 -1.854994,-3.98101 -7.183177,-7.84393 -11.958809,-8.56556 -0.01765,-0.33897 -0.08557,-0.69551 -0.01498,-1.03447 6.093991,-1.81918 4.558394,-8.80544 -3.538168,-8.8904 z m 4.312767,2.27883 c 1.158458,0.46951 2.581481,2.40655 0.724625,4.34774 -0.352797,0.30329 -0.960327,0.75961 -1.454247,0.75961 -0.01763,-0.49952 -0.09379,-1.07251 0.06497,-1.55419 0.24696,-0.37465 0.691983,-0.63274 0.709633,-1.11443 0.07056,-0.8028 -0.06263,-1.63593 -0.04498,-2.43873 z m -4.472684,1.06444 c 0.03528,0.48169 -0.126425,1.3902 0.04997,1.85404 0.111715,0.43833 0.225443,0.49846 0.454764,0.81958 0.05292,0.46384 0.03531,0.94543 0,1.40927 -1.28772,-0.19624 -2.399653,-1.49837 -2.293812,-2.81854 0.423358,-0.3568 1.277513,-1.0681 1.789074,-1.26435 z m 7.607911,10.92869 -5.231753,8.45845 c 0,0 -0.0045,0.003 -0.322222,0.003 -0.995101,0 -1.799068,0.87428 -1.799068,1.94899 0,1.07471 0.803967,1.944 1.799068,1.944 0.995101,0 1.804066,-0.86929 1.804066,-1.944 l 0,-0.01 c -0.003,-0.57457 -0.418912,-1.04174 -0.418912,-1.04174 l 4.463559,-9.15472 z m 10.267835,0.77026 c -0.872953,-0.003 -1.977802,0.18455 -3.028433,0.53972 -0.03998,0.39979 1.794072,2.21385 1.993968,2.53369 -1.154933,2.60477 -1.519511,3.85908 0.98449,5.92193 0.339825,0.53972 1.049457,0.74462 1.769085,0.72463 1.239358,0.04 2.358779,-0.59969 3.518178,-0.93952 0.999483,-0.29984 1.75909,-1.23936 1.819059,-2.27882 0.139927,-1.07944 0.259865,-2.35878 -0.559711,-3.19834 -0.779596,-0.75961 -1.539203,-1.61916 -2.558675,-2.05894 -0.959503,-0.39979 -1.919007,-0.81957 -2.918489,-1.11942 -0.274858,-0.0812 -0.622676,-0.12379 -1.019472,-0.12493 z m 0.28985,12.21367 c -0.08427,0.001 -0.167415,0.006 -0.244874,0.02 0.0046,0.75044 -0.541518,1.32231 -0.924521,1.22437 -0.588675,-0.47771 -4.403879,1.60403 -2.033947,5.08237 -0.05997,0.25987 -0.614682,0.94951 -0.71463,1.18938 1.019472,0.06 3.048422,0.80459 3.947956,1.32432 1.479234,0.45976 3.278303,0.55971 4.557641,-0.41978 0.679648,-0.3998 1.019472,-1.13941 1.439255,-1.75909 0.439772,-0.5797 0.339824,-1.33931 0.339824,-2.01896 0.01999,-1.33931 -0.919524,-2.4987 -2.058935,-3.09839 -1.068197,-0.28111 -3.043705,-1.56564 -4.307769,-1.54421 z m -4.817507,3.57316 c -0.910717,1.62883 -2.169656,3.04306 -3.683093,4.14285 0.847734,0.008 1.807999,0.17388 2.798551,0.42978 0.582121,-0.55305 1.129083,-1.17972 1.464242,-1.929 -0.427079,-0.77984 -0.638437,-1.73463 -0.5797,-2.64363 z m -6.541613,5.68705 -0.06497,0.055 c -1.496546,0.58636 -3.127381,0.90953 -4.837496,0.90953 -0.08113,0 -0.164098,-0.004 -0.244873,-0.005 0.495537,0.33129 0.971863,0.85242 1.399275,1.61916 1.217164,0.39249 2.544433,0.17749 3.638117,-0.46476 -0.09609,-1.67567 0.307063,-1.4186 0.109943,-2.1139 z" id="path4" inkscape:connector-curvature="0" sodipodi:nodetypes="sccscccccccccccccccccccccccccccccccccccccccccccccscccccccccccssccccccccccccccccccccccccssssccccscccccccccsscccccccccscccccccscccc"/>
</svg>