<svg xmlns="http://www.w3.org/2000/svg" xmlns:xlink="http://www.w3.org/1999/xlink" version="1.1" id="Your_Icon" x="0px" y="0px" width="100px" height="100px" viewBox="0 0 100 100" style="enable-background:new 0 0 100 100;" xml:space="preserve">
<g>
	<path d="M29.823,30.858c-2.18,2.181-2.18,5.717,0,7.896c2.186,2.188,5.718,2.188,7.901,0c2.182-2.18,2.182-5.716,0-7.896   C35.541,28.678,32.009,28.678,29.823,30.858z"/>
	<path d="M50,0C22.387,0,0,22.39,0,49.999C0,77.616,22.387,100,50,100c27.614,0,50-22.384,50-50.001C100,22.39,77.614,0,50,0z    M53.529,86.164l-33.58-33.581V32.831l11.848-11.848H51.55l33.584,33.58L53.529,86.164z"/>
</g>
</svg>