<svg xmlns="http://www.w3.org/2000/svg" xmlns:xlink="http://www.w3.org/1999/xlink" version="1.1" id="Your_Icon" x="0px" y="0px" width="100px" height="100px" viewBox="0 0 100 100" enable-background="new 0 0 100 100" xml:space="preserve">
<path d="M78.629,17.127h3.39l-3.014-7.251H58.539V0h-7.032v6.027H29.658v3.848h-8.664l-3.014,7.251h3.39v77.883h-3.296V100h63.85  v-4.991h-3.296V17.127z M38.699,88.494h-7.534V73.426h7.534V88.494z M38.699,65.892h-7.534V50.824h7.534V65.892z M38.699,43.289  h-7.534V28.222h7.534V43.289z M53.767,88.494h-7.534V73.426h7.534V88.494z M53.767,65.892h-7.534V50.824h7.534V65.892z   M53.767,43.289h-7.534V28.222h7.534V43.289z M68.835,88.494h-7.534V73.426h7.534V88.494z M68.835,65.892h-7.534V50.824h7.534  V65.892z M68.835,43.289h-7.534V28.222h7.534V43.289z"/>
</svg>