<svg xmlns="http://www.w3.org/2000/svg" xmlns:xlink="http://www.w3.org/1999/xlink" version="1.1" id="Your_Icon" x="0px" y="0px" width="100px" height="100px" viewBox="0 0 100 100" enable-background="new 0 0 100 100" xml:space="preserve">
<path d="M81.359,6.029V4.729h-1.481v19.397h-0.807v-4.591h-4.874v4.591h-3.181v-4.591h-4.873v4.642h0.01l2.991,15.856h-3.001v9.974  h-3.022v-4.388h-4.874v4.388h-3.094v-4.388H50.28v4.388h-3.181v-4.388h-4.874v4.388h-3.181v-4.388H34.17v4.388h-2.704v-9.974h-3.001  l2.991-15.856h0.01v-4.642h-4.874v4.591h-3.094v-4.591h-4.873v4.591h-0.893V10.902c6.213-2.983,12.427,0.65,18.64-2.377  c0-0.01,0-0.018,0-0.028c-6.213,1.49-12.427-3.682-18.64-2.237V4.729H16.25v19.397h-0.807v-4.591h-4.874v4.591H7.388v-4.591H2.514  v4.642h0.01l2.991,15.856H2.514v51.023H0v4.215h97.607v-4.215h-2.513V40.033h-3.001l2.991-15.856h0.01v-4.642H90.22v4.591h-3.094  v-4.591h-4.873v4.591H81.36V10.671c6.213,1.445,12.427-3.726,18.64-2.237c0-0.01,0-0.018,0-0.028  C93.787,5.379,87.572,9.012,81.359,6.029z M19.209,47.549H14.77V42.53c0-1.226,0.993-2.219,2.219-2.219  c1.225,0,2.219,0.994,2.219,2.219L19.209,47.549L19.209,47.549z M52.304,91.254h-7.317v-8.272c0-2.021,1.638-3.659,3.659-3.659  s3.659,1.638,3.659,3.659V91.254z M82.838,42.531v5.018h-4.439v-5.018c0-1.226,0.993-2.219,2.219-2.219  C81.844,40.311,82.838,41.305,82.838,42.531z"/>
</svg>