<svg xmlns="http://www.w3.org/2000/svg" version="1.1" x="0" y="0" width="100" height="100" viewBox="0" enable-background="new 0 0 100 100" xml:space="preserve"><g><path fill="rgb(89,112,177)" d="M80.32 28.94v12.61c-0.77-0.07-1.56-0.11-2.38-0.11-4.76 0-9.21 1.45-12.87 3.96l-2.53-3.37 17.78-13.15C80.32 28.9 80.32 28.92 80.32 28.94zM78.16 24.95L42.51 51.18 7.16 24.76c0.66-0.38 1.44-0.58 2.27-0.58h66.13C76.53 24.18 77.41 24.47 78.16 24.95zM58.99 44.68l2.67 3.52c-4.12 4.17-6.68 9.9-6.68 16.2 0 1.32 0.11 2.6 0.33 3.86H9.43c-0.39 0-0.77-0.05-1.14-0.14l17.82-23.57 16.4 12.31L58.99 44.68zM22.59 41.9l-17.61 23.27c-0.2-0.53-0.31-1.08-0.31-1.67V28.94c0-0.17 0-0.33 0.02-0.48L22.59 41.9z"/></g><g id="XMLID_16_"><path fill="rgb(89,112,177)" d="M94.51 83.46h0.18C94.68 84 94.63 83.94 94.51 83.46zM74.42 67.84c0.06 0.07 0.13 0.13 0.2 0.19h-0.26C74.38 67.97 74.4 67.91 74.42 67.84zM70.78 59.42c0 2.93 1.57 6.56 3.64 8.42-0.02 0.07-0.04 0.13-0.06 0.19-0.54 1.58-2.96 2.14-7.83 3.48-1.26 0.34-2.31 1.02-3.16 1.88-1.94-2.74-3.08-6.09-3.08-9.71 0-9.32 7.55-16.87 16.87-16.87 9.32 0 16.87 7.55 16.87 16.87 0 3.75-1.22 7.22-3.3 10.02-0.81-1.06-1.78-1.87-2.93-2.19-5.01-1.38-7.44-1.93-7.88-3.62 2.16-1.8 3.9-5.32 3.9-8.25 0-4.15-3.23-7.73-6.44-7.73S70.78 55.27 70.78 59.42z"/></g></svg>