<svg xmlns="http://www.w3.org/2000/svg" xmlns:xlink="http://www.w3.org/1999/xlink" version="1.1" id="Layer_1" x="0px" y="0px" width="100px" height="100px" viewBox="0 0 100 100" enable-background="new 0 0 100 100" xml:space="preserve">
<g>
	<g id="XMLID_15_">
		<g>
			<path d="M80.322,28.935v12.611c-0.77-0.07-1.56-0.111-2.38-0.111c-4.76,0-9.21,1.451-12.87,3.961l-2.529-3.37l17.779-13.149     C80.322,28.896,80.322,28.915,80.322,28.935z"/>
			<path d="M78.162,24.945L42.512,51.175L7.162,24.755c0.66-0.379,1.44-0.58,2.271-0.58h66.13     C76.532,24.175,77.412,24.466,78.162,24.945z"/>
			<path d="M58.992,44.675l2.67,3.521c-4.119,4.17-6.68,9.899-6.68,16.2c0,1.32,0.11,2.6,0.33,3.859H9.432     c-0.39,0-0.771-0.05-1.14-0.14l17.819-23.569l16.4,12.31L58.992,44.675z"/>
			<path d="M22.592,41.896l-17.61,23.27c-0.2-0.529-0.31-1.08-0.31-1.67V28.935c0-0.17,0-0.329,0.02-0.479L22.592,41.896z"/>
		</g>
	</g>
</g>
<g>
	<g id="XMLID_16_">
		<g>
			<path d="M94.51,83.46h0.18C94.68,84,94.63,83.94,94.51,83.46z"/>
			<path d="M74.42,67.84c0.06,0.07,0.13,0.13,0.2,0.19h-0.26C74.38,67.97,74.4,67.91,74.42,67.84z"/>
			<path d="M70.78,59.42c0,2.93,1.57,6.561,3.64,8.42c-0.02,0.07-0.04,0.13-0.06,0.19c-0.54,1.58-2.96,2.14-7.83,3.479     c-1.26,0.34-2.31,1.021-3.16,1.88c-1.94-2.739-3.08-6.09-3.08-9.71c0-9.319,7.55-16.87,16.87-16.87     c9.32,0,16.87,7.551,16.87,16.87c0,3.75-1.22,7.221-3.3,10.021c-0.81-1.061-1.78-1.87-2.93-2.19c-5.01-1.38-7.44-1.93-7.88-3.62     c2.16-1.8,3.9-5.319,3.9-8.25c0-4.149-3.23-7.729-6.44-7.729S70.78,55.27,70.78,59.42z"/>
		</g>
	</g>
</g>
</svg>