<svg xmlns="http://www.w3.org/2000/svg" version="1.1" x="0" y="0" width="100" height="100" viewBox="0" enable-background="new 0 0 100 100" xml:space="preserve"><path fill="rgb(133,129,161)" d="M50.66 17.94c0 1.93 1.57 3.5 3.5 3.5 1.94 0 3.5-1.57 3.5-3.5 0-1.93-1.57-3.5-3.5-3.5C52.23 14.44 50.66 16.01 50.66 17.94L50.66 17.94zM40.4 26.13c0 1.28 1.1 2.33 2.45 2.33h11.21c1.35 0 2.45-1.04 2.45-2.33 0-1.28-1.1-2.33-2.45-2.33H42.85C41.5 23.8 40.4 24.84 40.4 26.13L40.4 26.13zM39.3 17.94c0 1.93 1.57 3.5 3.5 3.5s3.5-1.57 3.5-3.5c0-1.93-1.57-3.5-3.5-3.5S39.3 16.01 39.3 17.94L39.3 17.94zM39.28 36.84v6.53c0 0.68 0.55 1.22 1.22 1.22h4.84c0.15-1.56 1.47-2.78 3.07-2.78 0.42 0 0.83 0.09 1.19 0.24l3.13-3.61c0.54-0.62 1.46 0.19 0.93 0.8l-3.04 3.5c0.47 0.49 0.79 1.13 0.86 1.84h4.91c0.68 0 1.23-0.55 1.23-1.22v-6.52c0-0.68-0.55-1.23-1.23-1.23H40.51C39.83 35.62 39.28 36.17 39.28 36.84L39.28 36.84zM46.21 5.28c0 1.02 0.67 1.89 1.59 2.19V7.35c0-0.43 0.34-0.64 0.65-0.64s0.64 0.22 0.64 0.65v0.16c1-0.25 1.73-1.16 1.73-2.23 0-1.27-1.03-2.31-2.31-2.31C47.24 2.97 46.21 4 46.21 5.28L46.21 5.28zM27.61 59.12l-1.12 0.24 -1.25-5.89c-0.28-1.31-1.56-2.14-2.87-1.86l-0.43 0.09c-1.31 0.28-2.14 1.56-1.86 2.87l1.25 5.89 -1.12 0.24 -2.53-2.81 -2.53-2.81 1.17-3.6 1.17-3.6 0.77-0.16c-0.23-1.14-0.22-2.25-0.09-3.27 0.8-6.55 6.97-10.52 13.62-11.38 0.45-0.59 1.16-0.97 1.95-0.97h9.51v-1.22h-3.83c-1.26 0-2.27-1.02-2.27-2.27v-3.86H35.78c-0.68 0-1.23-0.55-1.23-1.23v-4.95c0-0.68 0.55-1.23 1.23-1.23h1.35v-4.86c0-1.26 1.02-2.27 2.27-2.27h8.39V8.8c-1.64-0.33-2.88-1.78-2.88-3.52 0-1.99 1.61-3.59 3.6-3.59s3.6 1.61 3.6 3.6c0 1.79-1.31 3.28-3.02 3.55v1.36H57.5c1.26 0 2.28 1.02 2.28 2.27v4.86h1.33c0.68 0 1.23 0.55 1.23 1.23v4.95c0 0.68-0.55 1.23-1.23 1.23h-1.33v3.86c0 1.26-1.02 2.28-2.27 2.28h-3.8v1.22h9.51c0.86 0 1.62 0.45 2.06 1.12 5.09-0.6 8.02-3.44 8.34-6.06 0.06-0.49 0.05-0.9-0.01-1.25l-0.65 0.14 -2.53-2.81L67.89 20.4l1.17-3.6 1.17-3.6 1.13-0.24 1.25 5.89c0.28 1.31 1.56 2.14 2.87 1.86l0.43-0.09c1.31-0.28 2.14-1.56 1.86-2.87l-1.25-5.89 1.12-0.24 2.53 2.81 2.54 2.81 -1.17 3.6 -1.17 3.6 -0.76 0.16c0.23 1.14 0.22 2.25 0.09 3.27 -0.82 6.68-7.22 10.68-14.03 11.43V61.26c0 1.35-1.1 2.45-2.45 2.45h-0.47V89.25h1.18v6.33h1.34v2.18H49.33v-2.18h1.4V89.25h1.52V63.71h-7.64V89.25h1.18v6.33h1.34v2.18H31.19v-2.18h1.4V89.25h1.52V63.71h-0.39c-1.35 0-2.45-1.1-2.45-2.45V39.32c-4.29 0.89-6.75 3.46-7.05 5.85 -0.06 0.49-0.05 0.9 0.01 1.25l0.65-0.14 2.53 2.81 2.53 2.81 -1.17 3.6L27.61 59.12 27.61 59.12z"/></svg>