<svg xmlns="http://www.w3.org/2000/svg" version="1.1" x="0" y="0" width="100" height="100" viewBox="0" enable-background="new 0 0 100 100" xml:space="preserve"><path fill="rgb(224,217,14)" d="M62.84 9.44c-0.02-0.6-0.53-1.17-1.13-1.15L50.85 8.67c-0.6 0.02-1.06 0.7-1.04 1.3l0.26 7.36 13.04-0.46L62.84 9.44zM63.26 20.3l-13.04 0.46 2.28 64.35c0.02 0.6 0.52 0.89 1.12 0.88l10.87-0.39c0.6-0.02 1.07-0.42 1.05-1.02L63.26 20.3zM12 85.06c0 0.6 0.49 1.94 1.09 1.94h10.87c0.6 0 1.04-1.34 1.04-1.94V30H12V85.06zM25 17.32C25 16.72 24.56 16 23.96 16H13.09C12.49 16 12 16.72 12 17.32V25h13V17.32zM46.9 23.5c0-0.6-0.59-1.5-1.19-1.5H30.48C29.88 22 29 23.31 29 23.91V32h18v-8.09L46.9 23.5zM29 36v50.94c0 0.6 0.88 2.06 1.48 2.06h15.22C46.31 89 47 87.54 47 86.94V36H29zM75.58 84.86c0.09 0.61 0.63 1.03 1.23 0.95l10.76-1.57c0.59-0.09 1.02-0.56 0.94-1.17l-7.19-51.9-12.92 1.88L75.58 84.86zM79.64 20.61c-0.08-0.6-0.63-1.01-1.23-0.92l-10.76 1.53c-0.6 0.08-1.02 0.55-0.94 1.14l1.08 7.62 12.92-1.83L79.64 20.61z"/></svg>