<svg xmlns="http://www.w3.org/2000/svg" xmlns:xlink="http://www.w3.org/1999/xlink" version="1.1" x="0px" y="0px" width="100px" height="100px" viewBox="0 0 100 100" enable-background="new 0 0 100 100" xml:space="preserve">
<g id="Captions">
	<path d="M62.843,9.44c-0.021-0.601-0.528-1.174-1.129-1.153L50.848,8.672c-0.6,0.021-1.064,0.697-1.042,1.301   l0.261,7.363l13.039-0.464L62.843,9.44z"/>
	<path  d="M63.262,20.3l-13.039,0.459l2.275,64.351c0.021,0.595,0.517,0.892,1.118,0.877l10.865-0.387   c0.6-0.024,1.074-0.424,1.053-1.021L63.262,20.3z"/>
	<path d="M12,85.057c0,0.6,0.486,1.943,1.086,1.943h10.873c0.6,0,1.041-1.344,1.041-1.943V30H12V85.057z"/>
	<path d="M25,17.317C25,16.719,24.56,16,23.959,16H13.087C12.487,16,12,16.719,12,17.317V25h13V17.317z"/>
	<path d="M46.896,23.501c0-0.6-0.589-1.501-1.19-1.501H30.484C29.883,22,29,23.312,29,23.913V32h18v-8.087   L46.896,23.501z"/>
	<path d="M29,36v50.938c0,0.6,0.883,2.062,1.484,2.062h15.221C46.307,89,47,87.538,47,86.938V36H29z"/>
	<path d="M75.58,84.855c0.086,0.612,0.633,1.034,1.233,0.947l10.762-1.566c0.594-0.086,1.019-0.563,0.938-1.173   l-7.19-51.904l-12.919,1.881L75.58,84.855z"/>
	<path d="M79.642,20.608c-0.084-0.596-0.632-1.006-1.228-0.921l-10.765,1.528c-0.596,0.082-1.019,0.546-0.937,1.14   l1.079,7.623l12.921-1.833L79.642,20.608z"/>
</g>
<g id="Your_Icon">
</g>
</svg>