<svg xmlns="http://www.w3.org/2000/svg" version="1.1" id="tape-deck" x="0" y="0" width="100" height="100" viewBox="0" enable-background="new 0 0 100 100" xml:space="preserve"><path fill="rgb(186, 70, 65)" d="M73.79 6.67c-11.39 0-20.9 8-23.24 18.69h-1.11C47.11 14.67 37.6 6.67 26.21 6.67c-13.14 0-23.79 10.65-23.79 23.79 0 9.49 5.56 17.68 13.6 21.5v37.98c0 1.88 1.52 3.4 3.4 3.4h61.18c1.88 0 3.4-1.52 3.4-3.4V51.96c8.04-3.82 13.6-12.01 13.6-21.5C97.58 17.32 86.93 6.67 73.79 6.67zM44.37 33.27c0 2.4-7.21 9.61-9.61 9.61-2.4 0-6.01-8.41-4.81-9.61 1.2-1.2 3.61-3.6 4.81-4.81C35.96 27.26 44.37 30.86 44.37 33.27zM19.41 13.46c1.7-1.7 11.9-1.7 13.6 0 1.7 1.7-1.7 10.2-3.4 10.2s-5.1 0-6.8 0S17.71 15.16 19.41 13.46zM8.05 33.27c0-2.4 8.41-6.01 9.61-4.81 1.2 1.2 3.61 3.61 4.81 4.81 1.2 1.2-2.4 9.61-4.81 9.61C15.26 42.88 8.05 35.67 8.05 33.27zM27.91 89.94h-6.8V78.04h6.8V89.94zM36.41 89.94h-6.8V78.04h6.8V89.94zM44.9 89.94h-6.8V78.04h6.8V89.94zM60.2 59.35v3.4H38.1v-3.68l-5.32-0.89c0.13 0.37 0.22 0.76 0.22 1.17 0 1.88-1.52 3.4-3.4 3.4-1.42 0-2.63-0.87-3.14-2.11l-4.24 4.03-4.12-11.83c0.5 0.18 1.01 0.34 1.53 0.49l3.17 9.42 3.4-3.4c0-1.88 1.52-3.4 3.4-3.4 0.46 0 0.9 0.09 1.3 0.26l7.2 1.44v-3.4h22.09v3.4l6.65-4.43c0.46 0.14 0.93 0.27 1.41 0.38L60.2 59.35zM65.25 42.88c-2.4 0-9.61-7.21-9.61-9.61 0-2.4 8.41-6.01 9.61-4.81 1.2 1.2 3.61 3.61 4.81 4.81C71.25 34.47 67.65 42.88 65.25 42.88zM70.39 23.66c-1.7 0-5.1-8.5-3.4-10.2s11.9-1.7 13.6 0S78.89 23.66 77.19 23.66 72.09 23.66 70.39 23.66zM82.34 42.88c-2.4 0-6.01-8.41-4.81-9.61 1.2-1.2 3.6-3.6 4.81-4.81 1.2-1.2 9.61 2.4 9.61 4.81C91.95 35.67 84.74 42.88 82.34 42.88z"/></svg>